<svg width="20" height="20" viewBox="0 0 20 20" fill="none" xmlns="http://www.w3.org/2000/svg">
<path fill-rule="evenodd" clip-rule="evenodd" d="M15.5796 7.08333H7.88166C8.46125 6.34167 8.81227 5.4 8.81227 4.375C8.81227 3.35 8.46125 2.4125 7.88166 1.66667H15.5796C17.0408 1.66667 18.2327 2.88333 18.2327 4.375C18.2327 5.87083 17.0408 7.08333 15.5796 7.08333ZM4.54289 7.06667C3.17962 7.06667 2.05309 6.00417 1.9184 4.65C1.91023 4.55833 1.90615 4.46667 1.90615 4.375C1.90615 4.28333 1.91023 4.19167 1.9184 4.1C2.05309 2.74583 3.17962 1.68333 4.54289 1.68333C5.99595 1.68333 7.17962 2.89167 7.17962 4.375C7.17962 5.85833 5.99595 7.06667 4.54289 7.06667ZM15.5796 0H4.55921C2.19187 0 0.273499 1.95833 0.273499 4.375C0.273499 6.79167 2.19187 8.75 4.55921 8.75H15.5796C17.947 8.75 19.8653 6.79167 19.8653 4.375C19.8653 1.95833 17.947 0 15.5796 0V0Z" fill="#B8C5D3"/>
<path fill-rule="evenodd" clip-rule="evenodd" d="M1.90615 15.625C1.90615 14.1333 3.09391 12.9167 4.55921 12.9167H12.2531C11.6735 13.6625 11.3266 14.6 11.3266 15.625C11.3266 16.65 11.6735 17.5917 12.2531 18.3333H4.55921C3.09391 18.3333 1.90615 17.1208 1.90615 15.625ZM12.9592 15.625C12.9592 14.1417 14.1429 12.9333 15.5959 12.9333C16.9592 12.9333 18.0817 13.9958 18.2164 15.35C18.2286 15.4417 18.2327 15.5333 18.2327 15.625C18.2327 15.7167 18.2286 15.8083 18.2164 15.9C18.0817 17.2542 16.9592 18.3167 15.5959 18.3167C14.1429 18.3167 12.9592 17.1083 12.9592 15.625ZM0.273499 15.625C0.273499 18.0417 2.19187 20 4.55921 20H15.5796C17.947 20 19.8653 18.0417 19.8653 15.625C19.8653 13.2083 17.947 11.25 15.5796 11.25H4.55921C2.19187 11.25 0.273499 13.2083 0.273499 15.625V15.625Z" fill="#B8C5D3"/>
</svg>
