<svg width="13" height="14" viewBox="0 0 13 14" fill="none" xmlns="http://www.w3.org/2000/svg">
<path fill-rule="evenodd" clip-rule="evenodd" d="M11.1331 5.99997H7.06138V1.84497C7.06138 1.28997 6.62253 0.844971 6.08179 0.844971C5.54106 0.844971 5.1022 1.28997 5.1022 1.84497V5.99997H1.03053C0.489301 5.99997 0.0509338 6.44997 0.0509338 6.99997C0.0509338 7.55497 0.489301 7.99997 1.03053 7.99997H5.1022V12.155C5.1022 12.71 5.54106 13.155 6.08179 13.155C6.62253 13.155 7.06138 12.71 7.06138 12.155V7.99997H11.1331C11.6743 7.99997 12.1126 7.55497 12.1126 6.99997C12.1126 6.44997 11.6743 5.99997 11.1331 5.99997" fill="white"/>
</svg>
