<svg width="24" height="20" viewBox="0 0 24 20" fill="none" xmlns="http://www.w3.org/2000/svg">
<path fill-rule="evenodd" clip-rule="evenodd" d="M18.6529 18H5.51069L4.0124 11.5H20.1512L18.6529 18ZM2.28587 9.5H21.8777V7H2.28587V9.5ZM22.8573 5H21.2145L15.1038 0.500004C14.665 0.180004 14.0522 0.280004 13.7363 0.730004C13.4199 1.175 13.5189 1.8 13.9577 2.125L17.8653 5H6.29828L10.2059 2.125C10.6447 1.8 10.7437 1.175 10.4273 0.730004C10.1113 0.280004 9.4991 0.180004 9.05975 0.500004L2.94906 5H1.30628C0.765548 5 0.326691 5.45 0.326691 6V10.5C0.326691 11.055 0.765548 11.5 1.30628 11.5H1.99983L3.78122 19.23C3.88555 19.68 4.28032 20 4.73485 20H19.4287C19.8833 20 20.278 19.68 20.3824 19.23L22.1638 11.5H22.8573C23.398 11.5 23.8369 11.055 23.8369 10.5V6C23.8369 5.45 23.398 5 22.8573 5V5Z" fill="#B8C5D3"/>
<path fill-rule="evenodd" clip-rule="evenodd" d="M10.6124 16.75C11.0185 16.75 11.3471 16.415 11.3471 16V13.5C11.3471 13.085 11.0185 12.75 10.6124 12.75C10.2064 12.75 9.87772 13.085 9.87772 13.5V16C9.87772 16.415 10.2064 16.75 10.6124 16.75" fill="#B8C5D3"/>
<path fill-rule="evenodd" clip-rule="evenodd" d="M13.5512 16.75C13.9572 16.75 14.2859 16.415 14.2859 16V13.5C14.2859 13.085 13.9572 12.75 13.5512 12.75C13.1452 12.75 12.8165 13.085 12.8165 13.5V16C12.8165 16.415 13.1452 16.75 13.5512 16.75" fill="#B8C5D3"/>
<path fill-rule="evenodd" clip-rule="evenodd" d="M16.49 16.75C16.896 16.75 17.2247 16.415 17.2247 16V13.5C17.2247 13.085 16.896 12.75 16.49 12.75C16.0839 12.75 15.7553 13.085 15.7553 13.5V16C15.7553 16.415 16.0839 16.75 16.49 16.75" fill="#B8C5D3"/>
<path fill-rule="evenodd" clip-rule="evenodd" d="M7.67363 16.75C8.07967 16.75 8.40832 16.415 8.40832 16V13.5C8.40832 13.085 8.07967 12.75 7.67363 12.75C7.26759 12.75 6.93893 13.085 6.93893 13.5V16C6.93893 16.415 7.26759 16.75 7.67363 16.75" fill="#B8C5D3"/>
</svg>
