<svg width="20" height="16" viewBox="0 0 20 16" fill="none" xmlns="http://www.w3.org/2000/svg">
<path fill-rule="evenodd" clip-rule="evenodd" d="M18.1184 14.1061H6.73469C6.67347 14.1061 6.62449 14.0571 6.62449 13.9959V9.42448H18.2326V13.9959C18.2326 14.0571 18.1796 14.1061 18.1184 14.1061ZM4.43673 12.8204L1.94285 5.7755C1.93469 5.74693 1.93469 5.72244 1.94694 5.69387C1.9551 5.67346 1.97551 5.64897 2.01224 5.63673L12.7388 1.83673C12.8041 1.81632 12.8653 1.84489 12.8857 1.90612L13.902 4.77959H6.73469C5.77551 4.77959 4.99183 5.55918 4.99183 6.52244V12.7429L4.57959 12.8898C4.52245 12.9061 4.45714 12.8775 4.43673 12.8204ZM18.2326 6.52244V7.38367H6.62449V6.52244C6.62449 6.46122 6.67347 6.41224 6.73469 6.41224H18.1184C18.1796 6.41224 18.2326 6.46122 18.2326 6.52244ZM18.1184 4.77959H15.6327L14.4245 1.36326C14.1061 0.457137 13.1102 -0.020414 12.2 0.297953L1.46938 4.09795C1.02857 4.25306 0.673466 4.57142 0.473466 4.99183C0.273466 5.41224 0.248977 5.88571 0.404079 6.32244L2.89796 13.3673C3.1551 14.0816 3.82857 14.5265 4.54285 14.5265C4.71428 14.5265 4.88571 14.498 5.05714 14.4449C5.25714 15.1877 5.93061 15.7388 6.73469 15.7388H18.1184C19.0816 15.7388 19.8653 14.9551 19.8653 13.9959V6.52244C19.8653 5.55918 19.0816 4.77959 18.1184 4.77959V4.77959Z" fill="white"/>
<path fill-rule="evenodd" clip-rule="evenodd" d="M10.7714 10.4734H8.2898C7.95102 10.4734 7.67755 10.7469 7.67755 11.0857C7.67755 11.4245 7.95102 11.6979 8.2898 11.6979H10.7714C11.1102 11.6979 11.3837 11.4245 11.3837 11.0857C11.3837 10.7469 11.1102 10.4734 10.7714 10.4734" fill="white"/>
</svg>
