<svg width="20" height="13" viewBox="0 0 20 13" fill="none" xmlns="http://www.w3.org/2000/svg">
<path fill-rule="evenodd" clip-rule="evenodd" d="M16.7069 11.4163C16.7057 11.4163 16.7049 11.4163 16.7037 11.4163H16.6567C16.6424 11.4203 15.5588 11.4242 14.7343 10.4354C14.5457 10.203 12.8433 8.18997 11.0837 8.18997H9.04694C7.28734 8.18997 5.58489 10.203 5.4 10.4275C4.57714 11.4163 3.50857 11.4203 3.47387 11.4163H3.42694C3.42816 11.4282 2.77347 11.4163 2.33469 11.0066C2.04938 10.7388 1.90163 10.3291 1.8951 9.78543C1.88204 8.70209 2.32653 6.44876 3.14694 3.443C3.42612 2.4227 4.38612 1.70967 5.48163 1.70967H14.649C15.7445 1.70967 16.7049 2.4227 16.9837 3.443C17.8041 6.44876 18.2486 8.70209 18.2355 9.78543C18.2171 11.2982 17.0592 11.4163 16.7069 11.4163ZM18.5624 3.04118C18.0951 1.32755 16.4857 0.133911 14.649 0.133911H5.48163C3.6453 0.133911 2.03591 1.32755 1.56816 3.04118C0.962037 5.263 0.24367 8.23724 0.262445 9.80512C0.274282 10.786 0.589792 11.57 1.2 12.1372C2.06612 12.9448 3.19347 12.9921 3.43102 12.9921C3.44081 12.9921 3.44816 12.9921 3.45714 12.9921C3.74571 12.9921 5.41755 12.9212 6.67551 11.4124C7.23959 10.7309 8.34816 9.76573 9.04694 9.76573H11.0837C11.7829 9.76573 12.891 10.7309 13.4584 11.4163C14.7135 12.9251 16.3849 12.9921 16.6735 12.9921C16.6829 12.9921 16.6902 12.9921 16.7 12.9921C16.9371 12.9921 18.0649 12.9448 18.9302 12.1372C19.5408 11.57 19.8559 10.786 19.8682 9.80512C19.8873 8.23724 19.1686 5.263 18.5624 3.04118V3.04118Z" fill="white"/>
<path fill-rule="evenodd" clip-rule="evenodd" d="M7.61757 4.34513H6.83961V3.59665C6.83961 3.26968 6.56532 3.00574 6.22736 3.00574C5.889 3.00574 5.61512 3.26968 5.61512 3.59665V4.34513H4.83716C4.49879 4.34513 4.22491 4.60907 4.22491 4.93604C4.22491 5.26301 4.49879 5.52695 4.83716 5.52695H5.61512V6.27937C5.61512 6.60634 5.889 6.87028 6.22736 6.87028C6.56532 6.87028 6.83961 6.60634 6.83961 6.27937V5.52695H7.61757C7.95593 5.52695 8.22981 5.26301 8.22981 4.93604C8.22981 4.60907 7.95593 4.34513 7.61757 4.34513" fill="white"/>
<path fill-rule="evenodd" clip-rule="evenodd" d="M13.5743 3.00574C13.2359 3.00574 12.962 3.26968 12.962 3.59665C12.962 3.91968 13.2359 4.18756 13.5743 4.18756C13.9122 4.18756 14.1865 3.91968 14.1865 3.59665C14.1865 3.26968 13.9122 3.00574 13.5743 3.00574" fill="white"/>
<path fill-rule="evenodd" clip-rule="evenodd" d="M13.5743 5.68848C13.2359 5.68848 12.962 5.95242 12.962 6.27939C12.962 6.60636 13.2359 6.87029 13.5743 6.87029C13.9122 6.87029 14.1865 6.60636 14.1865 6.27939C14.1865 5.95242 13.9122 5.68848 13.5743 5.68848" fill="white"/>
<path fill-rule="evenodd" clip-rule="evenodd" d="M12.1841 4.34515C11.8457 4.34515 11.5718 4.60909 11.5718 4.93606C11.5718 5.26303 11.8457 5.52697 12.1841 5.52697C12.522 5.52697 12.7963 5.26303 12.7963 4.93606C12.7963 4.60909 12.522 4.34515 12.1841 4.34515" fill="white"/>
<path fill-rule="evenodd" clip-rule="evenodd" d="M14.9645 4.34515C14.6261 4.34515 14.3522 4.60909 14.3522 4.93606C14.3522 5.26303 14.6261 5.52697 14.9645 5.52697C15.3024 5.52697 15.5767 5.26303 15.5767 4.93606C15.5767 4.60909 15.3024 4.34515 14.9645 4.34515" fill="white"/>
</svg>
