<svg width="17" height="16" viewBox="0 0 17 16" fill="none" xmlns="http://www.w3.org/2000/svg">
<path fill-rule="evenodd" clip-rule="evenodd" d="M15.5363 13.3322C15.5363 13.9096 15.0682 14.3757 14.4929 14.3757C13.9176 14.3757 13.4494 13.9096 13.4494 13.3322V10.8974C13.4494 10.3235 13.9176 9.85391 14.4929 9.85391C15.0682 9.85391 15.5363 10.3235 15.5363 10.8974V13.3322ZM2.66678 9.85391C3.24208 9.85391 3.71026 10.3235 3.71026 10.8974V13.3322C3.71026 13.9096 3.24208 14.3757 2.66678 14.3757C2.09147 14.3757 1.6233 13.9096 1.6233 13.3322V10.8974C1.6233 10.3235 2.09147 9.85391 2.66678 9.85391ZM8.57982 0C3.97669 0 0.231995 3.74609 0.231995 8.34783V13.3322C0.231995 14.6748 1.32417 15.767 2.66678 15.767C4.00939 15.767 5.10156 14.6748 5.10156 13.3322V10.8974C5.10156 9.55826 4.00939 8.46261 2.66678 8.46261C2.29286 8.46261 1.94017 8.55304 1.6233 8.70261V8.34783C1.6233 4.5113 4.74399 1.3913 8.57982 1.3913C12.4156 1.3913 15.5363 4.5113 15.5363 8.34783V8.70261C15.2195 8.55304 14.8668 8.46261 14.4929 8.46261C13.1503 8.46261 12.0581 9.55826 12.0581 10.8974V13.3322C12.0581 14.6748 13.1503 15.767 14.4929 15.767C15.8355 15.767 16.9276 14.6748 16.9276 13.3322V8.34783C16.9276 3.74609 13.183 0 8.57982 0V0Z" fill="white"/>
</svg>
