<svg width="18" height="14" viewBox="0 0 18 14" fill="none" xmlns="http://www.w3.org/2000/svg">
<path fill-rule="evenodd" clip-rule="evenodd" d="M1.71438 12.5641H16.4083V3.58974H13.1021C12.8241 3.58974 12.5695 3.43538 12.445 3.19487L11.5461 1.4359H6.57659L5.67769 3.19487C5.55316 3.43538 5.29859 3.58974 5.02051 3.58974H1.71438V12.5641ZM17.143 14H0.979689C0.574138 14 0.244995 13.6805 0.244995 13.2821V2.87179C0.244995 2.47692 0.574138 2.15385 0.979689 2.15385H4.56646L5.46536 0.398462C5.58989 0.154359 5.84446 0 6.12255 0H12.0001C12.2782 0 12.5328 0.154359 12.6573 0.398462L13.5562 2.15385H17.143C17.5485 2.15385 17.8776 2.47692 17.8776 2.87179V13.2821C17.8776 13.6805 17.5485 14 17.143 14V14Z" fill="white"/>
<path fill-rule="evenodd" clip-rule="evenodd" d="M9.06137 5.20512C7.7448 5.20512 6.67361 6.25333 6.67361 7.53846C6.67361 8.82717 7.7448 9.87179 9.06137 9.87179C10.3779 9.87179 11.4491 8.82717 11.4491 7.53846C11.4491 6.25333 10.3779 5.20512 9.06137 5.20512ZM9.06137 11.3077C6.93443 11.3077 5.20422 9.61692 5.20422 7.53846C5.20422 5.46 6.93443 3.76923 9.06137 3.76923C11.1879 3.76923 12.9185 5.46 12.9185 7.53846C12.9185 9.61692 11.1879 11.3077 9.06137 11.3077V11.3077Z" fill="white"/>
</svg>
