<svg width="12" height="20" viewBox="0 0 12 20" fill="none" xmlns="http://www.w3.org/2000/svg">
<path fill-rule="evenodd" clip-rule="evenodd" d="M10.3239 14.2694C10.3239 14.502 10.1419 14.6939 9.92127 14.6939H2.21031C1.98579 14.6939 1.80773 14.502 1.80773 14.2694V5.32244C1.80773 5.08979 1.98579 4.89795 2.21031 4.89795H9.92127C10.1419 4.89795 10.3239 5.08979 10.3239 5.32244V14.2694ZM7.95095 17.6612C6.68514 18.0612 5.44256 18.0612 4.17676 17.6612L3.80902 16.3265H8.32256L7.95095 17.6612ZM4.17676 1.93468C5.44256 1.5306 6.68514 1.5306 7.95095 1.93468L8.32256 3.2653H3.80902L4.17676 1.93468ZM9.93676 3.26938L9.32514 1.0653C9.25547 0.812235 9.07353 0.612235 8.84127 0.526521C6.99869 -0.171438 5.12902 -0.171438 3.28644 0.526521C3.05418 0.612235 2.87611 0.812235 2.80644 1.0653L2.19482 3.26938C1.12644 3.27754 0.259338 4.19591 0.259338 5.32244V14.2694C0.259338 15.4 1.12644 16.3143 2.19482 16.3265L2.80644 18.5306C2.87611 18.7796 3.05418 18.9796 3.28644 19.0694C4.20773 19.4163 5.13676 19.5918 6.06579 19.5918C6.99095 19.5918 7.91998 19.4163 8.84127 19.0694C9.07353 18.9796 9.25547 18.7796 9.32514 18.5306L9.93676 16.3265C11.0051 16.3143 11.8722 15.4 11.8722 14.2694V5.32244C11.8722 4.19591 11.0051 3.27754 9.93676 3.26938V3.26938Z" fill="white"/>
<path fill-rule="evenodd" clip-rule="evenodd" d="M7.96646 9.18367H6.64646V6.86939C6.64646 6.53469 6.3871 6.25714 6.06581 6.25714C5.74452 6.25714 5.48517 6.53469 5.48517 6.86939V9.79592C5.48517 10.1347 5.74452 10.4082 6.06581 10.4082H7.96646C8.28775 10.4082 8.5471 10.1347 8.5471 9.79592C8.5471 9.45714 8.28775 9.18367 7.96646 9.18367" fill="white"/>
</svg>
